<svg xmlns="http://www.w3.org/2000/svg" version="1.1" xmlns:xlink="http://www.w3.org/1999/xlink" xmlns:svgjs="http://svgjs.dev/svgjs" width="1000" height="1125" viewBox="0 0 1000 1125"><g transform="matrix(1,0,0,1,1.7053025658242404e-13,0)"><svg viewBox="0 0 320 360" data-background-color="#ffffff" preserveAspectRatio="xMidYMid meet" height="1125" width="1000" xmlns="http://www.w3.org/2000/svg" xmlns:xlink="http://www.w3.org/1999/xlink"><g id="tight-bounds" transform="matrix(1,0,0,1,-5.684341886080802e-14,0)"><svg viewBox="0 0 320 360" height="360" width="320"><g><svg></svg></g><g><svg viewBox="0 0 320 360" height="360" width="320"><g><path xmlns="http://www.w3.org/2000/svg" d="M85.508 32.884c0-1.117 0.558-2.233 1.675-2.233 1.117 0 2.233 0.558 2.234 2.233 0.558 0 1.675 0 2.233-0.558 2.233 0 4.467-0.558 6.141 0 1.675 0.558 2.792 0.558 4.467 1.117 1.675 0.558 2.792 0 3.908-0.559 2.233-0.558 3.908-1.675 6.141-2.233 1.117-0.558 1.675-0.558 2.792-0.558 1.117-0.558 2.233-0.558 3.908-1.117 2.792-0.558 5.583-1.117 7.817-2.233 2.233-1.117 4.467-1.117 6.699-1.675 1.117 0 1.675-0.558 2.792-1.117 0.558 0 0.558-0.558 1.116-1.116 1.117-0.558 1.675-1.117 2.792-0.559 0.558 0.558 1.675 0.558 2.233 0h0.559c3.35 0 6.7-0.558 10.608 0 0.558 0 1.117 0 1.116 0 1.675-1.117 3.908-1.117 6.142-1.116 0.558 0 1.675 0 2.233 0h0.558c2.233 0 4.467 0 6.142 0.558 1.675 0 2.792 0.558 4.466 1.117 1.675 0 2.792 0 4.467 0.558 1.117 0 2.233 0 3.35 0 0.558 0 1.117 0 1.116 0 2.233 0.558 4.467 0.558 6.7 0.558 1.675 0.558 3.35 1.117 5.583 1.117 0.558 0 1.117 0 1.675 0 0.558 0 1.117 0.558 1.675 0.558l0.558 0.559c2.233 0 3.908 1.117 6.142 1.116 0.558 0 1.675 0 2.233 0.559 1.675 1.117 3.908 1.675 6.141 1.675 1.117 0 1.675 0.558 2.234 1.116 1.675 0.558 2.792 1.117 4.466 1.675 1.117 0.558 2.233 0 3.35 0.558 1.675 0.558 3.908 1.117 5.583 2.792 1.117 1.117 2.233 1.117 3.908 2.233 0.558 0 1.117 0.558 1.675 1.117 1.675 1.117 3.35 2.233 5.025 2.791 0.558 0 1.117 0.558 1.675 0.559 1.675 1.117 3.35 2.792 5.583 3.908 1.117 0.558 1.675 1.117 2.792 1.675h0.558c1.675 1.675 3.908 2.792 5.583 4.466 1.675 1.675 2.792 2.792 5.025 3.909 0 0 0 0 0 0.558 0.558 1.117 1.117 1.675 2.233 2.233 1.117 0.558 1.675 1.117 2.234 1.675 1.675 1.117 3.35 2.233 4.466 3.35 0.558 0.558 1.117 1.117 2.233 2.233 0.558 0.558 1.117 1.117 1.675 1.117 2.233 0.558 3.35 2.233 5.025 3.908 1.117 1.117 2.792 2.792 3.908 3.908 0.558 0.558 1.117 1.675 1.675 2.792 1.117 3.35 2.792 6.7 4.467 9.491 0 0 0 0.558 0.558 1.117v0.558c1.117 1.117 1.675 2.792 2.792 3.908 0.558 0.558 0.558 1.117 1.116 1.675 1.117 1.675 1.675 3.908 2.792 5.583 1.675 2.792 2.792 5.583 3.908 8.375v0.558c0.558 1.117 1.117 2.233 1.675 3.908 0 1.117 1.117 2.233 1.675 3.909 0.558 2.792 2.233 5.583 2.791 8.933 0 0.558 0.558 1.117 0.559 2.233 0.558 1.675 1.117 3.35 1.675 5.025 0 0.558 0.558 1.117 1.116 1.675 1.117 1.117 1.117 2.233 1.117 3.35-0.558 2.233 0 4.467 0.558 6.699 0 0.558 0 1.117 0 2.234 0.558 2.233 1.117 5.025 1.117 7.258 0 0.558 0 1.675 0 2.233 0 1.675 0.558 3.35 1.675 5.025 0 0.558 0.558 0.558 0.558 0.558 0.558 0.558 1.117 1.675 1.675 2.233 0.558 0.558 0.558 0.558 1.117 1.117 1.117 1.117 1.675 2.233 1.675 3.908 0 0.558-0.558 1.675-0.559 2.233 0 0.558 0 1.675 0.559 2.234 0.558 0.558 0.558 1.117 0.558 1.675 0 0.558-0.558 1.117-1.117 1.116v0c-0.558 1.675-2.792 2.233-3.35 3.908-0.558 2.233-1.117 4.467-1.674 6.7-0.558 1.675-0.558 2.792-0.559 4.467 0 1.675-0.558 2.792-0.558 4.466-0.558 2.233-1.117 4.467-1.675 6.7 0 1.117-0.558 2.233-0.558 3.35 0.558 0.558 1.117 1.117 1.675 1.116 1.117 1.117 2.233 2.233 3.349 3.35 0.558 0.558 0.558 1.117 0 1.117-0.558 0.558-1.117 0.558-1.674 0.558-0.558-0.558-1.675-1.117-2.234-1.116-0.558-0.558-1.675-1.117-2.791-0.559 0 1.117-0.558 2.233-0.559 2.792-0.558 1.117-1.117 2.792-1.116 3.908-0.558 2.233-1.675 3.908-2.233 6.142-1.117 2.792-2.233 5.025-3.35 7.258-0.558 1.117-1.117 2.233-1.675 3.35v0c0 1.675-1.675 3.35-2.234 5.024-1.117 2.233-2.233 4.467-3.349 7.258-0.558 1.117-1.117 2.233-1.675 2.792-1.117 2.792-2.233 5.025-3.909 7.258-1.117 1.675-2.233 2.792-3.349 3.35-1.117 1.117-2.233 2.233-3.35 3.35-0.558 0.558-1.117 1.117-1.675 1.675-0.558 0.558-0.558 0.558-1.117 1.116-1.117 1.675-2.792 2.792-3.908 4.467-1.117 1.117-1.675 2.233-3.35 3.35-1.117 1.117-2.233 2.792-3.908 3.35-0.558 0.558-1.117 1.675-1.675 2.233-0.558 0.558-1.117 1.675-1.675 2.233 0 1.117 0.558 2.233 0.558 2.792 0 1.675-1.675 2.233-2.791 1.116-1.675-1.117-1.675-1.117-3.35 0-1.675 1.117-3.35 2.792-5.583 3.35-0.558 0-0.558 0.558-1.117 0.559-1.117 0.558-1.675 1.675-2.792 2.233-1.117 1.117-2.792 1.675-3.908 2.791-0.558 0.558-1.117 0.558-1.675 1.117-1.675 1.117-3.35 1.675-5.024 3.35-0.558 0.558-1.117 0.558-1.675 1.117 0 0.558 0 0.558 0 1.116 0 1.117-1.117 2.233-2.792 1.675-1.675-0.558-2.792 0-4.466 0-1.675 0.558-3.35 1.675-5.025 2.233-0.558 0-1.117 0.558-1.675 1.117-1.675 1.117-3.35 1.675-5.025 2.233-1.117 0-2.233 1.117-3.35 1.117-0.558 0-1.117 0.558-1.675 0.558h-0.558c-2.233 1.675-4.467 2.792-6.7 4.467-0.558 0-0.558 0.558-1.117 1.116-0.558 1.117-1.117 1.675-2.233 1.675-2.792 0-3.908 2.233-3.35 4.467 0 0.558 0.558 1.117 0.559 1.675 0.558 1.117 0 2.233-0.559 2.791-0.558 0.558-2.233 0.558-2.791-0.558-1.117-1.117-1.675-2.233-2.234-3.908-0.558-1.117-1.675-2.233-2.791-2.792-1.117-0.558-2.233-0.558-3.35 0-0.558 0-0.558 0.558-1.117 0.558-1.117 1.117-2.792 1.675-4.466 1.117-0.558 0-1.675 0-1.675 0.558-0.558 0.558-0.558 1.675 0 2.234 1.117 1.117 0.558 2.233 0.558 3.908 0 2.233-1.675 3.35-3.908 2.233-0.558-0.558-1.117-0.558-1.675-1.117-0.558 0-0.558-0.558-0.558-1.116-0.558-0.558-0.558-1.675-1.117-2.792-1.117 0.558-2.233 0.558-3.35 1.117-0.558 0-1.117 0.558-1.675 0.558-1.675 0-2.233 0-2.791-1.675-0.558-1.675-1.675-1.675-2.792-2.233-2.233-0.558-5.025-0.558-7.258-1.675h-0.558c-2.233-1.675-4.467-1.675-7.258-1.675-1.675 0-3.35 0.558-5.025 0.558-1.675 0-2.792 0.558-3.908 1.675-0.558 0.558-1.117 1.117-1.675 1.117-0.558-0.558-0.558-1.117-1.117-1.675v-0.558c0-0.558-0.558-1.117-1.116-0.559-1.117 0.558-2.233-0.558-3.35-1.116-0.558-0.558-1.675-1.675-1.675-2.792-0.558-0.558-1.117-1.117-1.675-1.116-1.117 0-2.792-0.558-3.908-0.559-0.558 0-1.117 0-1.117-0.558-0.558-0.558-1.117-0.558-2.233-0.558-0.558 0-0.558-0.558-1.117-0.559 1.117 1.117 1.675 2.233 2.233 3.35 0 0.558 0.558 0.558 0.559 1.117 0.558 1.117 0 1.675-1.675 1.675-1.117 0-1.117 0-1.675 0.558 0 1.117 0 1.675 0 2.792 0 0.558 0 1.117-1.117 1.675 0 0-0.558 0-0.558 0.558-0.558 0.558-0.558 1.117 0 1.675 1.675 1.117 2.792 1.675 4.466 2.233 1.675 0 1.675 1.117 2.234 2.233 0.558 1.117 0 1.675-0.559 2.792-1.117 1.117-2.233 2.233-3.35 3.35-1.675 0.558-2.792 2.233-4.466 2.233-1.117 0-2.233-0.558-2.792-1.675-0.558-2.792-0.558-5.025 0.559-7.816 0-0.558 0.558-1.117 0-1.675-5.025 0-5.025-1.117-5.025-1.675 0-1.117 0.558-1.675 0.558-2.792 0.558-1.117 0-1.675-1.675-2.233-0.558 0-1.117 0-1.675 0-0.558 0-0.558-0.558-1.675-0.558 1.117-0.558 1.675-0.558 2.792-1.117-0.558-2.233-1.117-3.908-2.792-5.025-0.558-0.558-1.117-1.117-1.116-2.233 0-1.675-1.117-2.792-1.675-3.908-1.117-1.675-3.35-2.233-5.025-2.233-1.675-0.558-2.792-0.558-4.467-1.117-1.675-0.558-3.35-2.233-5.024-2.792-0.558-0.558-1.117-1.117-2.234-1.674-2.233-1.117-3.908-2.792-5.583-4.467-1.117-0.558-1.675-1.675-2.791-2.233-1.117-1.117-1.675-2.233-2.792-2.792-1.117-1.117-2.233-2.233-3.908-3.35-1.675-1.117-2.792-2.792-4.467-4.466-1.117-1.675-2.792-2.792-4.466-3.908-0.558 0-1.117 0-1.675 0-0.558 0-1.117 0.558-1.675 0.558-1.675 0.558-2.792 1.675-4.467 2.233 0.558-0.558 0.558-0.558 0-1.675-0.558-0.558-1.117-1.117-1.674-1.116-1.117 0-2.233 0-3.35 0-2.233 0-4.467 0.558-6.7 0.558-1.675 0-3.908 0.558-5.583 1.117 0.558 1.117 0.558 1.675 1.116 2.791-1.117 0.558-2.233 0.558-3.35 0.558-0.558 0-1.675 0.558-2.233 1.117-0.558 0-0.558 0.558-1.116 0-1.117-0.558-2.233 0-3.35 0.558h-0.559c0 0 0-0.558 0.559-0.558 0.558-0.558 1.117-1.117 1.675-1.675 0.558-0.558 1.117-0.558 2.233-1.117-0.558-0.558-0.558-1.117-0.558-1.116-0.558-0.558-1.117-0.558-1.675 0-0.558 0.558-1.117 1.117-1.675 1.675-0.558 0.558-1.117 0.558-1.675 0-0.558-0.558-0.558-1.117 0-1.675 0-0.558 0.558-1.117 1.116-1.675 0.558-0.558 0.558-1.117 1.117-1.675-1.117-1.117-1.675-2.233-2.792-2.792-1.675-1.117-3.35-2.792-4.466-4.466-1.117-2.233-2.792-3.908-5.025-5.025-0.558-0.558-1.117-1.117-1.675-1.675-0.558-0.558-0.558-0.558-1.116-1.117-1.675 0.558-2.792 1.675-4.467 2.234-0.558 0-0.558 0.558-1.117 1.116-0.558 1.117-1.675 1.117-2.791 1.117-0.558 0-1.117-0.558-0.558-1.117 0.558-1.117 1.117-2.233 2.791-1.675 0 0 0.558 0 0.558-0.558 1.117-1.117 2.233-2.792 3.909-3.908-0.558-1.675-1.675-2.792-2.234-3.908-0.558-0.558-0.558-1.117-0.558-2.234 0-0.558 0-0.558-0.558-1.116 0 0-0.558 0-1.117 0.558-0.558 0.558-1.675 1.117-2.791 0 0-0.558 0-1.117 0.558-1.675l0.558-0.558c1.675-0.558 1.675-2.233 1.675-3.908v-0.559c-0.558-1.117-0.558-1.675 0.558-2.791 1.675-1.117 3.35-3.35 3.909-5.025 0.558-1.117 1.675-1.675 2.791-2.792 1.117-1.117 2.233-2.233 2.792-3.908h0.558c2.233 0.558 2.792-1.117 3.908-2.791 0-0.558 0-1.117 0.559-1.117 1.117-1.117 1.117-2.233 0.558-3.908 0-0.558-0.558-1.675-0.558-2.233 0-0.558 0-0.558-0.559-1.117-1.675-1.117-1.675-2.233 0-3.35 1.117-0.558 1.117-1.675 1.675-2.233 0.558-1.117 0.558-2.233 0.559-3.908-0.558-1.675-0.558-3.908-1.117-5.583-0.558-2.233-1.117-5.025-1.675-7.259 0-0.558 0-0.558 0-1.116 0-1.675 0-2.792-0.558-4.467-0.558-0.558-0.558-1.675-0.559-2.233-0.558-1.675-1.117-2.792-2.791-3.35-1.675-1.117-3.908-1.675-5.583-2.791-0.558-0.558-1.117 0-1.675 0.558-0.558 1.117-1.675 2.233-2.234 3.35-0.558 0.558-1.117 1.675-1.675 2.791-1.117 1.117-3.35 2.233-5.024 0.559-0.558-1.117-1.117-1.675 0-2.792 1.117-1.675 2.233-3.35 3.908-4.466 0.558-0.558 1.117-1.675 1.675-2.234 0.558-1.117 0.558-2.233 0.558-3.35-0.558-2.233-1.117-4.467-1.117-7.258 0-2.792 0-5.025 0.559-7.816 0.558-1.117 0.558-2.792 1.116-3.908 0-0.558 0.558-1.675 1.117-2.233 1.117-1.117 2.233-2.233 2.792-3.909 0.558-1.675 1.675-3.35 1.675-5.024 0-0.558 0.558-1.117 0.558-1.675 0-0.558 0.558-1.675 0.558-2.234-0.558-1.675 0-2.792 0.558-3.908 0.558-1.117 1.117-2.792 1.675-3.908 1.117-2.233 1.117-5.025 3.35-7.258 0.558-1.117 1.117-2.233 1.675-3.35 0.558-2.233 1.675-3.908 2.792-5.583 0.558-0.558 0.558-0.558 0.558-1.117 0.558-1.675 1.675-3.35 2.792-5.025 1.117-1.675 1.117-3.35 1.675-5.024 0-0.558 0-1.117 0.558-1.675 1.675-1.675 1.117-3.908 0.558-6.142-1.117-2.792-1.675-5.583-1.116-8.374 0-0.558 0-1.117 0.558-1.117 0.558-1.117 0.558-1.675 1.117-2.792v-0.558c1.117-1.117 2.233-2.792 3.908-3.35 2.233-1.117 4.467-1.675 7.258-2.233 2.233 0 4.467-1.117 6.141-3.35 0-0.558 0.558-0.558 1.117-1.117l0.558-0.558c0.558-1.117 1.117-1.675 1.675-2.233 1.117-1.117 2.233-2.792 3.35-3.908 1.117-1.117 2.233-2.792 3.908-4.467l0.559-0.558c1.117-1.117 2.233-2.233 3.349-2.792 1.117-1.117 2.233-2.233 3.35-3.35 1.117-1.117 1.675-2.233 2.792-3.35 1.117-0.558 2.233-1.675 3.35-2.791 1.117-1.117 2.233-2.233 2.791-2.792 1.117-1.117 2.792-2.233 3.909-2.791 1.117-0.558 2.233-1.117 2.791-2.792 0.558-1.675 1.117-2.792 1.675-4.466 0-1.117 0.558-2.233 1.117-3.35 0.558 0 1.117 0 2.233-0.558-0.558-0.558-1.117-0.558-1.117-1.117 0-0.558 0.558-1.117 0.559-1.117 0-0.558 0.558-1.117 0.558-1.675 0 0 0.558 0 0.558-0.558 0 0 0.558 0 0.559-0.558-1.117 0.558-1.675 0-2.234-0.559 0.558 0.558 1.117 0.558 2.234 1.117 0 0 0.558 0 0.558-0.558 0-0.558 0-1.117 0-1.117 0 0-0.558 0-1.117 0-0.558 0-1.117 0.558-1.675 0.558zM182.097 295.292c0-0.558-0.558-0.558-0.559-1.117-0.558-1.117 0-1.675 0.559-2.233 0.558-0.558 1.117-0.558 2.233-0.558 1.117 0.558 1.675 1.117 1.675 2.233 0 0.558 0 1.675 0 2.233 0.558 2.233 0.558 2.233 2.791 2.233 1.117 0 2.233 0 3.35 0 2.233-0.558 4.467-1.675 6.7-2.233 2.233-0.558 4.467-1.117 6.7-1.675 0.558 0 1.117 0 2.233 0 2.233 0.558 3.908 0 5.583-1.117 0.558-0.558 1.675-0.558 2.233-1.116 1.117-0.558 2.233-0.558 3.35-1.117 2.792-1.675 5.583-2.792 7.817-4.466 1.675-1.117 3.35-2.233 5.024-3.35 1.675-1.117 3.35-2.233 5.025-3.35 1.117-0.558 2.792-1.675 3.908-2.792 2.233-1.675 3.908-3.35 6.142-4.466 1.117-0.558 1.675-1.117 2.233-1.675 1.117-0.558 1.675-1.675 2.792-2.233 0.558-0.558 1.117-1.117 2.233-1.675 0.558-0.558 0.558-0.558 0.558-1.117 1.675-1.117 3.35-3.35 4.467-5.025 1.117-1.117 2.233-2.233 3.35-3.908 1.675-1.675 2.792-3.908 4.466-6.141 1.117-1.117 2.233-2.792 2.792-3.909 1.117-2.233 2.233-4.467 3.908-6.141v-0.558c1.117-2.233 2.233-4.467 3.35-6.7 1.675-2.792 2.792-6.141 4.466-8.933 0.558-1.117 1.117-2.233 1.117-3.35 1.117-2.233 1.675-4.467 2.233-6.7 0-0.558 0-0.558 0.559-1.116 1.675-3.35 2.792-6.7 3.349-10.608 0.558-2.233 1.117-4.467 1.675-6.7 1.117-3.35 1.117-6.141 1.675-9.491 0.558-2.233 0.558-5.025 0.559-7.258 0.558-3.35 0.558-7.258 0-10.608 0-2.792-0.558-6.141-0.559-8.933 0-2.792-0.558-5.025-1.116-7.817-0.558-2.792-1.117-5.025-1.675-7.816-1.117-2.233-1.675-4.467-2.234-7.258-0.558-2.233-1.675-3.908-1.674-6.142 0-1.675-0.558-3.35-2.234-3.908-1.675-0.558-2.792-1.117-4.466-2.233-3.35-2.233-5.025-5.025-4.467-8.375 0-1.675 0.558-3.908 1.117-5.583 0.558-1.675 1.117-3.35 0-4.467-0.558-1.675-1.675-2.792-2.233-3.908-1.117-1.675-1.675-2.792-2.792-3.908-1.117-2.233-2.233-4.467-3.908-6.141-2.233-2.792-3.908-5.583-6.7-7.817l-0.558-0.558c-1.675-2.233-3.35-4.467-5.583-6.142-1.117-1.117-2.233-2.233-3.35-2.791-0.558-0.558-1.117-1.117-2.233-1.675-1.675-1.117-3.35-1.675-4.467-2.792-1.675-1.675-3.908-2.792-5.583-3.908 0 0-0.558 0-0.558-0.558-2.233-1.117-3.908-1.675-6.142-2.792-2.233-1.117-4.467-1.675-6.7-1.675-0.558 0-0.558 0-1.116 0-0.558-0.558-1.675-0.558-2.233-0.558-0.558 0-0.558 0-1.117 0-1.117-0.558-2.792 0-3.908 0-2.233 0.558-4.467 0.558-6.7-0.558-2.792-1.117-5.025-2.233-7.258-3.35-1.675-1.117-2.792-2.233-4.467-3.35-3.35-2.792-6.7-6.141-10.608-8.933 0.558-2.792-0.558-3.35-2.791-3.35-1.117 0-2.233 0.558-3.35 1.117-0.558 0.558-0.558 0.558-1.117 1.116-1.675 1.117-2.792 2.792-4.466 3.909-2.792 1.675-3.908 1.117-6.142 0-0.558-0.558-1.117-1.117-1.675-1.675-1.117-1.117-2.233-2.792-2.791-3.909-1.117-2.233-3.35-2.233-5.583-2.233-1.117 0-2.792 0.558-3.908 0.558-2.233 0-4.467 1.117-5.584 2.792-1.117 1.675-2.233 3.35-3.908 5.025-0.558 0.558-1.675 1.117-2.233 2.233-1.117 1.117-2.233 1.117-3.35 0-0.558-0.558-1.117-0.558-1.675-1.117-0.558 0.558-1.117 1.117-1.117 1.675-0.558 1.117-1.117 2.233-1.674 3.909-0.558 1.675-1.675 3.35-2.792 4.466-0.558 0.558-0.558 0.558-1.117 1.117-0.558 1.117-2.233 1.675-3.35 1.675-1.117 1.117-2.233 2.792-2.791 3.908-0.558 1.117-1.117 2.233-1.675 3.908-0.558 0.558-0.558 1.675-1.117 2.233-0.558 1.117-0.558 1.675-0.558 2.792 0.558 1.675-0.558 2.233-2.233 2.791-1.117 0-1.117 0-1.675 1.117 0 1.675 0.558 2.792 1.116 4.467 0.558 0.558 1.117 1.675 1.117 2.233 0 1.117 0.558 1.675 1.675 2.233 0.558 0.558 1.117 1.117 1.675 1.117 0.558 0 0.558 0.558 1.117 0.558 0.558 0.558 1.117 0 1.116-0.558 0.558-1.675 1.117-3.35 1.117-5.025 0.558-2.233 0.558-3.908 1.116-6.142 0.558-1.117 1.117-1.675 1.675-2.233 0 0 0.558 0 1.117 0v0.559c-0.558 2.792-1.675 6.141-2.233 8.933-0.558 1.117-0.558 2.233-1.117 3.349 0 0.558-0.558 1.117-1.116 1.117-1.117 0.558-2.233 1.117-3.35 1.117-0.558 0-1.117 0-1.675 0-1.117-0.558-2.233-1.675-3.35-2.234-0.558-0.558-1.117-1.117-1.675-1.674-0.558-1.117-1.117-2.233-1.675-3.35-0.558-1.117-1.117-1.675-2.233-2.234-0.558-0.558-1.117-0.558-1.675-1.116-1.117-1.117-2.233-1.675-3.908-1.675-0.558 0-1.675 0-2.234 0-0.558 0-1.675 0.558-2.233 1.116-1.117 0.558-1.675 0.558-2.791 0-2.792-1.117-5.583-0.558-8.375 0.559-1.117 0.558-2.233 1.117-3.35 1.116-2.792 0-5.025 0-7.816 0-2.792 0-5.025-0.558-7.817-1.116-1.117 0-2.233 0-3.35 0-2.233 0.558-2.792 2.233-2.233 4.466 0.558 2.233 1.117 5.025 1.117 7.258 0 1.675 0 3.35 0 5.025 0 1.117 0 1.675 0 2.792 0 1.675-0.558 3.35-0.559 5.025-0.558 3.35-2.233 6.141-4.466 8.374-1.675 1.675-3.908 3.35-6.142 3.908-1.117 0.558-2.233 1.117-3.908 1.675-2.792 1.117-5.025 3.35-6.7 6.142-0.558 1.117-1.117 2.233-1.674 3.35-1.117 1.675-1.675 2.792-2.792 4.466-0.558 1.117-1.675 2.233-2.233 3.35-0.558 1.117-1.675 1.675-1.675 2.792-1.117 2.233-1.675 4.467-2.792 6.699-0.558 1.117-0.558 2.792-1.116 3.909-1.117 2.233-1.117 4.467-1.117 7.258 0 0.558 0 1.117 0 2.233 0 2.792-0.558 6.141-0.558 8.933 0 2.792 0 5.583 0.558 8.375 0 1.117 0 2.792 0 3.908 0 2.233 0.558 5.025 0.558 7.258 0 2.233 0 5.025 1.117 7.258v0.558c0.558 2.233 0.558 4.467 1.116 6.7 0 0.558 0 1.117 0.559 1.675 1.117 3.35 1.675 6.141 2.791 9.491 0.558 2.233 1.675 4.467 2.234 6.7 0.558 2.233 2.792 4.467 3.349 7.258v0c1.675 3.35 3.35 6.7 5.584 10.05 0.558 1.117 1.675 2.233 2.233 3.35 1.117 1.675 1.675 3.35 2.791 4.466 0.558 1.117 1.675 2.233 2.234 2.792 0.558 1.117 1.117 2.233 2.233 3.35 1.117 1.117 2.233 2.792 3.35 3.908 1.675 2.792 3.908 5.025 6.141 6.7 1.117 1.117 2.233 1.675 3.35 2.791 0.558 0.558 1.117 0.558 1.117 1.117 0.558 0.558 1.117 1.117 2.233 1.675 4.467 2.233 7.816 5.583 11.725 8.933 1.675 1.675 3.35 3.35 5.583 4.466 2.233 1.675 3.908 3.35 6.7 3.908 0 0 0.558 0 0.558 0.559 1.117 1.117 2.792 1.675 3.908 2.233 2.233 1.117 5.025 2.233 7.258 3.35 0.558 0.558 1.675 0.558 2.233 1.117 1.675 0.558 3.35 1.117 5.025 1.674 1.675 0.558 2.792 1.117 4.467 1.117h0.558c1.117 0.558 1.675 0.558 2.792 0 0.558 0 1.117 0 1.116 0.558 0 0.558 0.558 0.558 1.117 0.559 0.558 0 1.117 0 2.233 0 0.558-0.558 0.558-1.117 1.117-2.234 0.558 0.558 1.117 0.558 1.116 0.559 0.558 1.117 1.675 1.117 2.792 1.116h0.558c1.117 0 1.675 0 2.233-0.558 0-0.558 1.117-0.558 1.675-0.558 1.675 0.558 3.35 0.558 5.025 1.116 1.117 0.558 2.792 0.558 3.35-0.558 0.558-0.558 1.117-1.117 2.233-0.558 1.117 0.558 1.675 0.558 2.792 0 0.558 0 1.117 0 1.117 0 1.675 0.558 2.792 0.558 4.466 1.116 2.233 0.558 2.233 0.558 3.908-1.116 0.558-0.558 1.675-0.558 2.233 0 0.558 1.117 0.558 1.675 0.559 2.791 0.558 0 0.558 0 1.116-0.558 0-1.117 0.558-1.117 1.675-1.675 0.558 0.558 0.558 0.558 1.117 0.558 1.117 1.117 1.675 1.117 2.233-0.558 0-0.558 0-1.117 0.559-1.116 0.558 0 1.117 0.558 1.116 0.558 0.558 1.117 1.675 1.675 2.233 2.791 1.117 1.117 2.792 1.117 3.35 0 0.558-0.558 1.117-0.558 1.675-0.558 0-0.558 0-1.117 0-1.675 1.675 1.117 1.117 1.117 0.559 1.117zM89.417 34.559c1.675 0.558 2.792 0.558 3.349-0.558-1.117 0.558-2.233-0.558-3.349 0.558z" fill="#4a596d" fill-rule="nonzero" stroke="none" stroke-width="1" stroke-linecap="butt" stroke-linejoin="miter" stroke-miterlimit="10" stroke-dasharray="" stroke-dashoffset="0" font-family="none" font-weight="none" font-size="none" text-anchor="none" style="mix-blend-mode: normal" data-fill-palette-color="tertiary"></path></g><g transform="matrix(1,0,0,1,64,154.19552024497608)"><svg viewBox="0 0 192 51.60895951004784" height="51.60895951004784" width="192"><g><svg viewBox="0 0 192 51.60895951004784" height="51.60895951004784" width="192"><g><svg viewBox="0 0 192 51.60895951004784" height="51.60895951004784" width="192"><g><svg viewBox="0 0 192 51.60895951004784" height="51.60895951004784" width="192"><g id="textblocktransform"><svg viewBox="0 0 192 51.60895951004784" height="51.60895951004784" width="192" id="textblock"><g><svg viewBox="0 0 192 27.83540669856459" height="27.83540669856459" width="192"><g transform="matrix(1,0,0,1,0,0)"><svg width="192" viewBox="4.21999979019165 -36.380001068115234 255.1099853515625 36.9900016784668" height="27.83540669856459" data-palette-color="#4a596d"><path d="M10.21-16.97L10.21-2.73Q10.21-0.63 10.3 0L10.3 0 4.22 0 4.22-34.91 10.21-34.91 10.21-23.61Q13.35-26 16.7-26L16.7-26Q20.8-26 23.29-23.29L23.29-23.29Q25.73-20.58 25.73-16.11L25.73-16.11 25.73-6.4Q25.73-2.27 25.85-1.44 25.98-0.61 26.18-0.37 26.39-0.12 26.54 0.07L26.54 0.07 26.49 0.17Q24.51 0 23.61 0L23.61 0 21.88 0Q21.07 0 19.75 0.07L19.75 0.07 19.75-14.06Q19.75-17.43 18.26-19.04L18.26-19.04Q17.14-20.26 15.21-20.26L15.21-20.26Q12.35-20.26 10.21-16.97L10.21-16.97ZM49.56-1.51L49.56-1.51Q46.09 0.37 43.28 0.37 40.48 0.37 38.47-0.16 36.47-0.68 35.08-1.71L35.08-1.71Q32.25-3.78 32.25-7.71L32.25-7.71Q32.25-11.23 35.72-13.57L35.72-13.57Q39.48-16.11 45.92-16.11L45.92-16.11 46.9-16.09Q47.19-16.06 47.56-16.05 47.92-16.04 48.22-15.99L48.22-15.99Q48.02-19.9 44.85-20.56L44.85-20.56Q43.8-20.78 42.61-20.78 41.43-20.78 40.29-20.57 39.16-20.36 38.08-20.02L38.08-20.02Q35.72-19.26 34.69-18.29L34.69-18.29 34.62-18.33 33.88-23.73Q38.21-26 43.33-26L43.33-26Q51.29-26 53.51-20.26L53.51-20.26Q54.22-18.43 54.22-16.14L54.22-16.14 54.22-7.3Q54.22-4.47 56.22-3.44L56.22-3.44 51.8 0.61Q50.41-0.12 49.56-1.51ZM48.24-6.49L48.24-11.6Q47.58-11.72 46.87-11.72L46.87-11.72 45.9-11.72Q40.5-11.72 39.04-9.33L39.04-9.33Q38.6-8.62 38.6-7.84 38.6-7.06 38.88-6.46 39.16-5.86 39.82-5.47L39.82-5.47Q41.09-4.74 43.59-4.74 46.09-4.74 48.26-5.93L48.26-5.93Q48.24-6.2 48.24-6.49L48.24-6.49ZM68.26-17.07L68.26-3.13Q68.26-0.98 68.45 0L68.45 0 62.32 0 62.32-25.51 68.26-25.51 68.26-23.34Q71.48-26 75.14-26L75.14-26Q79.15-26 81.54-23.28 83.93-20.56 83.93-16.11L83.93-16.11 83.93-6.4Q83.93-2.27 84.05-1.44 84.17-0.61 84.38-0.37 84.59-0.12 84.74 0.07L84.74 0.07 84.69 0.17Q82.71 0 81.81 0L81.81 0 80.1 0Q79.32 0 78 0.07L78 0.07 78-13.23Q78-20.39 73.65-20.39L73.65-20.39Q70.43-20.39 68.26-17.07L68.26-17.07ZM99.65 0.37L99.65 0.37Q92.77 0.37 89.27-2.15L89.27-2.15Q89.32-2.88 89.42-3.81L89.42-3.81 89.64-5.57Q89.84-7.3 89.89-7.73 89.93-8.15 89.96-8.19 89.98-8.23 90.35-7.8 90.72-7.37 91.74-6.76 92.77-6.15 94.11-5.69L94.11-5.69Q97.01-4.69 100.16-4.69L100.16-4.69Q104.39-4.69 104.39-7.5L104.39-7.5Q104.39-8.4 103.58-8.84L103.58-8.84Q102.14-9.57 99.35-9.95 96.55-10.33 94.77-11.06 92.99-11.79 91.86-12.82L91.86-12.82Q89.79-14.75 89.79-17.87L89.79-17.87Q89.79-21.68 92.72-23.85L92.72-23.85Q95.62-26 100.75-26L100.75-26Q105.83-26 109.42-23.12L109.42-23.12Q109.25-22.49 109.05-21.9L109.05-21.9Q108.49-20.29 108.22-19.58L108.22-19.58 107.66-18.14Q107.61-17.94 107.59-17.94L107.59-17.94Q107.54-17.94 107.19-18.46L107.19-18.46Q105.66-20.24 102.41-20.8L102.41-20.8Q101.41-21 100.36-21L100.36-21Q95.92-21 95.92-18.31L95.92-18.31Q95.92-17.38 96.84-16.89L96.84-16.89Q98.58-15.97 101.59-15.53 104.61-15.09 106.17-14.34 107.73-13.6 108.68-12.55L108.68-12.55Q110.44-10.64 110.44-7.5L110.44-7.5Q110.44-4.05 107.68-1.9L107.68-1.9Q104.8 0.37 99.65 0.37ZM136.64-2.88L136.64-2.88Q132.61 0.61 126.89 0.61L126.89 0.61Q121.28 0.61 117.62-2.73L117.62-2.73Q114.03-5.98 114.03-10.79L114.03-10.79Q114.03-15.14 117.79-18.02L117.79-18.02Q118.91-18.9 120.2-19.48L120.2-19.48Q118.81-21.83 118.81-24.07 118.81-26.32 119.55-27.91 120.28-29.49 121.57-30.64L121.57-30.64Q124.33-33.08 128.65-33.08L128.65-33.08Q131.73-33.08 134.29-31.62L134.29-31.62Q134.17-29.54 134.17-28.42L134.17-28.42Q134.17-26.88 134.21-26.49 134.24-26.1 134.23-25.94 134.22-25.78 134.19-25.68L134.19-25.68Q134.1-25.54 134.15-25.34L134.15-25.34 134.02-25.17Q133.05-26.64 130.24-27.27L130.24-27.27Q129.38-27.47 128.04-27.47 126.7-27.47 125.83-26.66 124.97-25.85 124.97-24.63L124.97-24.63Q124.97-22.53 127.94-19.29L127.94-19.29Q128.87-18.26 130.19-16.97L130.19-16.97 135.93-11.72Q136.71-13.84 136.71-16.19L136.71-16.19Q136.71-17.63 135.98-18.58L135.98-18.58Q135.81-18.8 135.71-18.87L135.71-18.87 135.71-19.17 139.25-17.75Q140.27-17.33 140.91-17.11 141.54-16.89 141.86-16.75L141.86-16.75Q142.42-16.5 142.42-16.21L142.42-16.21Q142.42-11.82 140.44-7.86L140.44-7.86Q142.93-5.81 143.64-5.54 144.35-5.27 144.72-5.22L144.72-5.22Q145.89-5.08 146.08-5.32L146.08-5.32 146.21-5.18 143.69 0.32Q143.28 0.61 142.28 0.61L142.28 0.61Q140.74 0.61 136.64-2.88ZM122.18-7.01Q124.21-5.25 127.05-5.25 129.9-5.25 132.17-6.81L132.17-6.81 129.53-9.23Q125.31-13.06 122.82-15.92L122.82-15.92Q120.16-13.99 120.16-11.38 120.16-8.76 122.18-7.01ZM155.75-5.83L155.75-3.22Q155.75-1.12 155.92 0L155.92 0 149.77 0 149.77-34.91 155.75-34.91 155.75-13.53 166.91-25.51 174.16-25.51 164.54-15.38 170.03-7.89Q171.81-5.05 172.72-3.74L172.72-3.74 174.33-1.46Q175.06-0.51 175.55 0L175.55 0 171.69 0Q169.54 0 168.01 0.37L168.01 0.37 160.39-10.77 155.75-5.83ZM195.37-1.51L195.37-1.51Q191.9 0.37 189.1 0.37 186.29 0.37 184.29-0.16 182.28-0.68 180.89-1.71L180.89-1.71Q178.06-3.78 178.06-7.71L178.06-7.71Q178.06-11.23 181.53-13.57L181.53-13.57Q185.29-16.11 191.73-16.11L191.73-16.11 192.71-16.09Q193-16.06 193.37-16.05 193.74-16.04 194.03-15.99L194.03-15.99Q193.83-19.9 190.66-20.56L190.66-20.56Q189.61-20.78 188.42-20.78 187.24-20.78 186.11-20.57 184.97-20.36 183.9-20.02L183.9-20.02Q181.53-19.26 180.5-18.29L180.5-18.29 180.43-18.33 179.7-23.73Q184.02-26 189.15-26L189.15-26Q197.1-26 199.33-20.26L199.33-20.26Q200.03-18.43 200.03-16.14L200.03-16.14 200.03-7.3Q200.03-4.47 202.04-3.44L202.04-3.44 197.62 0.61Q196.23-0.12 195.37-1.51ZM194.05-6.49L194.05-11.6Q193.39-11.72 192.69-11.72L192.69-11.72 191.71-11.72Q186.31-11.72 184.85-9.33L184.85-9.33Q184.41-8.62 184.41-7.84 184.41-7.06 184.69-6.46 184.97-5.86 185.63-5.47L185.63-5.47Q186.9-4.74 189.4-4.74 191.9-4.74 194.08-5.93L194.08-5.93Q194.05-6.2 194.05-6.49L194.05-6.49ZM213.41-17.77L213.41-2.73Q213.41-0.63 213.51 0L213.51 0 207.43 0 207.43-25.51 213.41-25.51 213.41-23.63Q215.49-26 217.77-26 220.05-26 221.37-25.44L221.37-25.44 220.93-18.87 220.83-18.8Q219.98-20.31 217.29-20.31L217.29-20.31Q216.27-20.31 215.2-19.62 214.14-18.92 213.41-17.77L213.41-17.77ZM223.12-12.55L223.12-12.55Q223.12-15.41 224.1-17.85 225.08-20.29 226.86-22.12L226.86-22.12Q230.67-26 236.82-26L236.82-26Q242.02-26 245.17-22.56L245.17-22.56Q248.27-19.24 248.27-14.21L248.27-14.21Q248.27-12.28 247.98-11.57L247.98-11.57Q245.54-10.89 238.04-10.89L238.04-10.89 229.45-10.89Q230.08-8.28 232.4-6.82 234.72-5.37 238.43-5.37L238.43-5.37Q242.31-5.37 245.1-6.76L245.1-6.76Q245.83-7.13 246.2-7.45L246.2-7.45Q246.15-6.42 246.07-5.35L246.07-5.35 245.81-1.54Q243.95-0.27 239.8 0.22L239.8 0.22Q238.58 0.37 237.46 0.37L237.46 0.37Q231.25 0.37 227.2-3.25L227.2-3.25Q223.12-6.88 223.12-12.55ZM241.78-15.63L241.78-15.63Q240.78-20.87 236.06-20.87L236.06-20.87Q232.35-20.87 230.42-17.68L230.42-17.68Q229.84-16.7 229.52-15.53L229.52-15.53Q230.11-15.5 230.96-15.48L230.96-15.48 232.77-15.48Q233.67-15.45 234.5-15.45L234.5-15.45 235.89-15.45Q237.14-15.45 238.33-15.48L238.33-15.48 240.34-15.55Q241.14-15.58 241.78-15.63ZM259.23-36.38L259.23-2.73Q259.23-0.63 259.33 0L259.33 0 253.13 0 253.13-36.38 259.23-36.38Z" opacity="1" transform="matrix(1,0,0,1,0,0)" fill="#4a596d" class="undefined-text-0" data-fill-palette-color="primary" id="text-0"></path></svg></g></svg></g><g transform="matrix(1,0,0,1,0,34.40667817033493)"><svg viewBox="0 0 55.73188087100868 17.202281339712915" height="17.202281339712915" width="55.73188087100868"><g transform="matrix(1,0,0,1,0,0)"><svg width="55.73188087100868" viewBox="2.200000047683716 -37.5 158.74000549316406 49" height="17.202281339712915" data-palette-color="#aab7c0"><path d="M7.75 0.5L7.75 0.5Q5.35 0.5 3.78-0.93 2.2-2.35 2.2-4.85L2.2-4.85Q2.2-7.3 3.98-9.08 5.75-10.85 10.15-11.9L10.15-11.9 14.9-13 14.9-16.5Q14.9-18.3 13.58-19.5 12.25-20.7 10.5-20.7L10.5-20.7Q8.65-20.7 7.93-19.75 7.2-18.8 7.2-17.15L7.2-17.15 7.2-15.55 6.95-15.3 4.2-15.3Q3.45-15.3 3.18-15.58 2.9-15.85 2.9-16.75L2.9-16.75Q2.9-17.85 3.58-18.98 4.25-20.1 5.65-20.95L5.65-20.95Q7.15-21.9 8.7-22.48 10.25-23.05 12-23.05L12-23.05Q13.9-23.05 15.68-22.53 17.45-22 18.55-20.75 19.65-19.5 19.65-17.4L19.65-17.4 19.65-3.45Q20-3.1 20.63-2.85 21.25-2.6 22.35-2.6L22.35-2.6 24.1-2.6 24.3-2.5 24.3-2.2Q23.7-1.15 22.48-0.33 21.25 0.5 19.5 0.5L19.5 0.5Q17.8 0.5 16.75-0.33 15.7-1.15 15.25-2.6L15.25-2.6 14.9-2.6Q13.6-1.3 11.73-0.4 9.85 0.5 7.75 0.5ZM6.75-5.95L6.75-5.95Q6.75-2.85 10.4-2.85L10.4-2.85Q11.5-2.85 12.53-3.08 13.55-3.3 14.9-3.85L14.9-3.85 14.9-11.25Q11.3-10.55 9.55-9.75 7.8-8.95 7.28-8.03 6.75-7.1 6.75-5.95ZM35.35 0.5L35.35 0.5Q32.95 0.5 31.22 0.08 29.5-0.35 27.75-1.25L27.75-1.25 27.75-6.85 28.5-6.85 30.1-4.15Q31.75-1.4 35.2-1.4L35.2-1.4Q37.2-1.4 38.27-2.3 39.35-3.2 39.35-4.8L39.35-4.8Q39.35-6.1 38.67-6.9 38-7.7 36.72-8.3 35.45-8.9 33.65-9.75L33.65-9.75Q31.05-10.9 29.67-12.3 28.3-13.7 28.3-16.15L28.3-16.15Q28.3-18.1 29.37-19.65 30.45-21.2 32.15-22.13 33.85-23.05 35.75-23.05L35.75-23.05Q37.55-23.05 39.15-22.63 40.75-22.2 42.3-21.4L42.3-21.4 42.3-15.85 41.6-15.85 39.95-18.45Q38.3-21.05 35.9-21.05L35.9-21.05Q34.25-21.05 33.25-20.23 32.25-19.4 32.25-17.95L32.25-17.95Q32.25-16.35 33.42-15.48 34.6-14.6 37.1-13.5L37.1-13.5Q38.55-12.85 39.95-12.13 41.35-11.4 42.27-10.13 43.2-8.85 43.2-6.5L43.2-6.5Q43.2-4.2 41.97-2.65 40.75-1.1 38.95-0.3 37.15 0.5 35.35 0.5ZM60.15 11.5L48.6 11.5 48.6 10.7 51.8 9.1 51.8-17.3 48.75-19.85 48.75-20.25 55.65-23.05 56-23.05 56.4-20 56.75-20Q58.6-21.6 60.35-22.33 62.1-23.05 64.15-23.05L64.15-23.05Q66.59-23.05 68.55-21.75 70.5-20.45 71.65-18.07 72.8-15.7 72.8-12.35L72.8-12.35Q72.8-8.3 71.25-5.43 69.7-2.55 67.09-1.03 64.5 0.5 61.35 0.5L61.35 0.5Q58.65 0.5 56.5 0L56.5 0 56.5 9.1 60.15 10.7 60.15 11.5ZM61.1-19.45L61.1-19.45Q58.7-19.45 56.5-18.1L56.5-18.1 56.5-3.9Q57.8-2.8 59.22-2.38 60.65-1.95 62.4-1.95L62.4-1.95Q63.9-1.95 65.2-2.8 66.5-3.65 67.27-5.58 68.05-7.5 68.05-10.75L68.05-10.75Q68.05-13.8 67.09-15.7 66.15-17.6 64.57-18.53 63-19.45 61.1-19.45ZM88.39 0L77.19 0 77.19-0.8 80.39-2.4 80.39-31.8 77.34-34.35 77.34-34.75 84.74-37.5 85.09-37.5 85.09-19.35 85.29-19.35Q87.19-21.2 88.94-22.13 90.69-23.05 92.89-23.05L92.89-23.05Q95.79-23.05 97.72-21.58 99.64-20.1 99.64-17.15L99.64-17.15 99.64-2.4 102.79-0.8 102.79 0 91.59 0 91.59-0.8 94.89-2.25 94.89-14.85Q94.89-17 93.59-18.07 92.29-19.15 90.24-19.15L90.24-19.15Q88.99-19.15 87.49-18.75 85.99-18.35 85.09-17.5L85.09-17.5 85.09-2.25 88.39-0.8 88.39 0ZM112.24 0.5L112.24 0.5Q109.84 0.5 108.27-0.93 106.69-2.35 106.69-4.85L106.69-4.85Q106.69-7.3 108.47-9.08 110.24-10.85 114.64-11.9L114.64-11.9 119.39-13 119.39-16.5Q119.39-18.3 118.07-19.5 116.74-20.7 114.99-20.7L114.99-20.7Q113.14-20.7 112.42-19.75 111.69-18.8 111.69-17.15L111.69-17.15 111.69-15.55 111.44-15.3 108.69-15.3Q107.94-15.3 107.67-15.58 107.39-15.85 107.39-16.75L107.39-16.75Q107.39-17.85 108.07-18.98 108.74-20.1 110.14-20.95L110.14-20.95Q111.64-21.9 113.19-22.48 114.74-23.05 116.49-23.05L116.49-23.05Q118.39-23.05 120.17-22.53 121.94-22 123.04-20.75 124.14-19.5 124.14-17.4L124.14-17.4 124.14-3.45Q124.49-3.1 125.12-2.85 125.74-2.6 126.84-2.6L126.84-2.6 128.59-2.6 128.79-2.5 128.79-2.2Q128.19-1.15 126.97-0.33 125.74 0.5 123.99 0.5L123.99 0.5Q122.29 0.5 121.24-0.33 120.19-1.15 119.74-2.6L119.74-2.6 119.39-2.6Q118.09-1.3 116.22-0.4 114.34 0.5 112.24 0.5ZM111.24-5.95L111.24-5.95Q111.24-2.85 114.89-2.85L114.89-2.85Q115.99-2.85 117.02-3.08 118.04-3.3 119.39-3.85L119.39-3.85 119.39-11.25Q115.79-10.55 114.04-9.75 112.29-8.95 111.77-8.03 111.24-7.1 111.24-5.95ZM142.29 0L131.29 0 131.29-0.8 134.44-2.4 134.44-31.8 131.44-34.35 131.44-34.75 138.79-37.5 139.19-37.5 139.19-2.4 142.29-0.8 142.29 0ZM154.84 0.5L154.84 0.5Q152.44 0.5 150.76-0.8 149.09-2.1 149.09-4.45L149.09-4.45 149.09-20.25 145.09-20.25 145.09-20.65 149.44-22.55 153.34-28.05 153.79-28.05 153.79-22.55 160.44-22.55 160.44-20.25 153.79-20.25 153.79-5.4Q153.79-4.1 154.91-3.5 156.04-2.9 157.59-2.9L157.59-2.9Q158.54-2.9 159.34-3 160.14-3.1 160.79-3.25L160.79-3.25 160.94-3.25 160.94-2.65Q160.34-1.5 158.76-0.5 157.19 0.5 154.84 0.5Z" opacity="1" transform="matrix(1,0,0,1,0,0)" fill="#aab7c0" class="undefined-text-1" data-fill-palette-color="secondary" id="text-1"></path></svg></g></svg></g></svg></g></svg></g></svg></g></svg></g></svg></g></svg></g><defs></defs></svg><rect width="320" height="360" fill="none" stroke="none" visibility="hidden"></rect></g></svg></g></svg>